<svg xmlns="http://www.w3.org/2000/svg" viewBox="0 0 1280 720">
  <defs><linearGradient id="b" x1="0" y1="0" x2="1" y2="1"><stop stop-color="#0F172A"/><stop offset=".6" stop-color="#111827"/><stop offset="1" stop-color="#063CE6"/></linearGradient><linearGradient id="p" x1="0" y1="0" x2="1" y2="1"><stop stop-color="#0252FA"/><stop offset="1" stop-color="#F39A09"/></linearGradient></defs>
  <rect width="1280" height="720" rx="42" fill="url(#b)"/>
  <g opacity=".18" stroke="#DCE0E8"><path d="M0 120h1280M0 240h1280M0 360h1280M0 480h1280M0 600h1280M160 0v720M320 0v720M480 0v720M640 0v720M800 0v720M960 0v720M1120 0v720"/></g>
  <rect x="84" y="76" width="74" height="74" rx="20" fill="url(#p)"/><text x="121" y="127" text-anchor="middle" font-family="Segoe UI,Arial" font-size="38" font-weight="900" fill="#fff">N</text>
  <text x="182" y="108" font-family="Segoe UI,Arial" font-size="26" font-weight="900" fill="#fff">Nexora Engine</text><text x="182" y="140" font-family="Segoe UI,Arial" font-size="18" font-weight="700" fill="#94A3B8">Video 03</text>
  <text x="84" y="282" font-family="Segoe UI,Arial" font-size="70" font-weight="900" fill="#fff"><tspan x="84" dy="0">Ghost Protocol</tspan><tspan x="84" dy="84">Explained</tspan></text>
  <text x="84" y="466" font-family="Segoe UI,Arial" font-size="30" font-weight="750" fill="#F39A09">Hide WordPress from scanners in 60 seconds.</text>
  <g transform="translate(770 210)"><rect width="360" height="230" rx="24" fill="#020617" stroke="#334155"/><circle cx="34" cy="30" r="8" fill="#475569"/><circle cx="60" cy="30" r="8" fill="#475569"/><circle cx="86" cy="30" r="8" fill="#475569"/><text x="34" y="88" font-family="Consolas,monospace" font-size="20" fill="#DBEAFE">$ curl -I site.com</text><text x="34" y="130" font-family="Consolas,monospace" font-size="20" fill="#E24B4A">x-powered-by: removed</text><text x="34" y="172" font-family="Consolas,monospace" font-size="20" fill="#F39A09">x-nexora: protected</text></g>
</svg>
