<svg width="720" height="208" viewBox="0 0 720 208" fill="none" xmlns="http://www.w3.org/2000/svg">
<path d="M189.328 132L218.224 64.32H232.432L261.424 132H245.104L239.152 117.696H211.216L205.264 132H189.328ZM215.92 105.6H234.544L225.232 82.176L215.92 105.6ZM287.949 133.056C282.125 133.056 277.773 131.328 274.893 127.872C272.013 124.416 270.573 119.872 270.573 114.24V81.888H285.357V109.632C285.357 112 285.741 113.952 286.509 115.488C287.341 117.024 288.397 118.176 289.677 118.944C291.021 119.648 292.493 120 294.093 120C295.693 120 297.165 119.648 298.509 118.944C299.917 118.176 301.069 117.024 301.965 115.488C302.925 113.952 303.405 112 303.405 109.632V81.888H318.189V132.768L303.309 126.048C301.773 128.032 299.725 129.696 297.165 131.04C294.669 132.384 291.597 133.056 287.949 133.056ZM333.226 132V81.984L348.106 90.624C349.706 87.68 351.722 85.376 354.154 83.712C356.65 81.984 359.658 81.12 363.178 81.12C363.562 81.12 363.914 81.12 364.234 81.12C364.554 81.12 364.842 81.152 365.098 81.216V96.48C364.842 96.352 364.49 96.288 364.042 96.288C363.658 96.224 363.21 96.192 362.698 96.192C359.946 96.192 357.45 96.768 355.21 97.92C352.97 99.072 351.21 100.864 349.93 103.296C348.65 105.664 348.01 108.768 348.01 112.608V132H333.226ZM390.897 133.152C387.697 133.152 384.689 132.512 381.873 131.232C379.121 129.888 376.881 128 375.153 125.568C373.489 123.072 372.657 120.032 372.657 116.448C372.657 113.632 373.169 111.232 374.193 109.248C375.281 107.2 376.753 105.536 378.609 104.256C380.465 102.976 382.609 102.016 385.041 101.376C387.537 100.736 390.193 100.416 393.009 100.416C395.569 100.416 398.001 100.64 400.305 101.088C402.609 101.536 404.593 102.112 406.257 102.816V101.664C406.257 98.464 405.137 96.16 402.897 94.752C400.657 93.344 397.425 92.64 393.201 92.64C390.449 92.64 387.729 92.928 385.041 93.504C382.353 94.016 379.569 94.912 376.689 96.192V85.152C379.441 84 382.417 83.04 385.617 82.272C388.817 81.504 392.433 81.12 396.465 81.12C401.713 81.12 406.129 81.92 409.713 83.52C413.361 85.056 416.113 87.392 417.969 90.528C419.825 93.664 420.753 97.568 420.753 102.24V132.768L406.161 126.816C404.241 128.8 402.065 130.368 399.633 131.52C397.201 132.608 394.289 133.152 390.897 133.152ZM396.081 123.36C398.129 123.36 399.985 123.008 401.649 122.304C403.377 121.6 404.913 120.576 406.257 119.232V110.592C405.169 110.016 403.857 109.536 402.321 109.152C400.849 108.704 399.153 108.48 397.233 108.48C395.377 108.48 393.681 108.768 392.145 109.344C390.609 109.92 389.393 110.784 388.497 111.936C387.601 113.024 387.153 114.368 387.153 115.968C387.153 117.504 387.569 118.848 388.401 120C389.233 121.088 390.321 121.92 391.665 122.496C393.073 123.072 394.545 123.36 396.081 123.36ZM436.482 132V61.824H451.266V132H436.482ZM491.93 133.152C486.618 133.152 481.914 132 477.818 129.696C473.722 127.328 470.49 124.16 468.122 120.192C465.818 116.224 464.666 111.84 464.666 107.04C464.666 103.456 465.338 100.064 466.682 96.864C468.026 93.664 469.914 90.88 472.346 88.512C474.842 86.08 477.754 84.192 481.082 82.848C484.41 81.504 488.058 80.832 492.026 80.832C497.338 80.832 502.042 82.016 506.138 84.384C510.298 86.688 513.53 89.792 515.834 93.696C518.202 97.6 519.386 101.984 519.386 106.848C519.386 110.624 518.682 114.112 517.274 117.312C515.866 120.512 513.882 123.296 511.322 125.664C508.762 128.032 505.818 129.888 502.49 131.232C499.226 132.512 495.706 133.152 491.93 133.152ZM492.026 120.672C494.586 120.672 496.826 120.032 498.746 118.752C500.666 117.472 502.17 115.808 503.258 113.76C504.346 111.648 504.89 109.408 504.89 107.04C504.89 104.608 504.346 102.336 503.258 100.224C502.17 98.112 500.634 96.448 498.65 95.232C496.73 93.952 494.458 93.312 491.834 93.312C489.338 93.312 487.098 93.92 485.114 95.136C483.194 96.352 481.722 97.984 480.698 100.032C479.674 102.08 479.162 104.352 479.162 106.848C479.162 109.344 479.706 111.648 480.794 113.76C481.946 115.872 483.482 117.568 485.402 118.848C487.386 120.064 489.594 120.672 492.026 120.672ZM554.312 148.608C550.024 148.608 546.184 148.096 542.792 147.072C539.464 146.112 536.168 144.8 532.904 143.136V130.656C534.696 131.808 536.712 132.928 538.952 134.016C541.256 135.104 543.72 135.968 546.344 136.608C548.968 137.248 551.592 137.568 554.216 137.568C559.016 137.568 562.856 136.448 565.736 134.208C568.68 132.032 570.152 128.384 570.152 123.264V120C568.168 122.368 565.864 124.352 563.24 125.952C560.616 127.552 557.352 128.352 553.448 128.352C549.288 128.352 545.448 127.36 541.928 125.376C538.472 123.392 535.72 120.64 533.672 117.12C531.624 113.536 530.6 109.376 530.6 104.64C530.6 99.776 531.624 95.584 533.672 92.064C535.784 88.48 538.568 85.728 542.024 83.808C545.544 81.824 549.384 80.832 553.544 80.832C557.256 80.832 560.36 81.536 562.856 82.944C565.416 84.352 567.688 86.144 569.672 88.32L584.744 81.984V121.824C584.744 127.776 583.432 132.736 580.808 136.704C578.248 140.672 574.664 143.648 570.056 145.632C565.512 147.616 560.264 148.608 554.312 148.608ZM557.672 116.64C560.04 116.64 562.152 116.128 564.008 115.104C565.928 114.016 567.432 112.576 568.52 110.784C569.608 108.928 570.152 106.848 570.152 104.544C570.152 102.176 569.608 100.096 568.52 98.304C567.432 96.512 565.928 95.104 564.008 94.08C562.152 93.056 560.04 92.544 557.672 92.544C555.24 92.544 553.096 93.056 551.24 94.08C549.384 95.104 547.912 96.544 546.824 98.4C545.8 100.192 545.288 102.272 545.288 104.64C545.288 106.944 545.832 108.992 546.92 110.784C548.008 112.576 549.48 114.016 551.336 115.104C553.192 116.128 555.304 116.64 557.672 116.64ZM600.702 132V81.984H615.39V132H600.702ZM607.902 75.936C605.47 75.936 603.39 75.232 601.662 73.824C599.998 72.416 599.166 70.432 599.166 67.872C599.166 65.248 599.998 63.232 601.662 61.824C603.39 60.416 605.47 59.712 607.902 59.712C610.398 59.712 612.51 60.416 614.238 61.824C615.966 63.168 616.83 65.184 616.83 67.872C616.83 70.432 615.966 72.416 614.238 73.824C612.51 75.232 610.398 75.936 607.902 75.936ZM654.896 133.152C651.248 133.152 647.824 132.48 644.624 131.136C641.424 129.792 638.64 127.936 636.272 125.568C633.904 123.136 632.048 120.352 630.704 117.216C629.424 114.016 628.784 110.624 628.784 107.04C628.784 102.304 629.904 97.984 632.144 94.08C634.384 90.112 637.488 86.944 641.456 84.576C645.488 82.144 650.096 80.928 655.28 80.928C657.264 80.928 659.28 81.12 661.328 81.504C663.44 81.824 665.264 82.368 666.8 83.136V97.824C665.264 96.416 663.632 95.328 661.904 94.56C660.176 93.792 658.288 93.408 656.24 93.408C653.744 93.408 651.504 94.016 649.52 95.232C647.536 96.384 646 97.984 644.912 100.032C643.824 102.016 643.28 104.288 643.28 106.848C643.28 109.344 643.856 111.648 645.008 113.76C646.224 115.872 647.824 117.568 649.808 118.848C651.792 120.064 654.032 120.672 656.528 120.672C658.384 120.672 660.24 120.32 662.096 119.616C663.952 118.848 665.68 117.728 667.28 116.256V130.464C665.552 131.296 663.632 131.936 661.52 132.384C659.408 132.896 657.2 133.152 654.896 133.152ZM697.49 133.056C693.842 133.056 690.514 132.576 687.506 131.616C684.562 130.656 681.554 129.472 678.482 128.064V115.392C680.274 116.672 682.226 117.856 684.338 118.944C686.45 119.968 688.562 120.8 690.674 121.44C692.85 122.08 694.866 122.4 696.722 122.4C697.618 122.4 698.578 122.272 699.602 122.016C700.626 121.76 701.522 121.312 702.29 120.672C703.058 120.032 703.442 119.168 703.442 118.08C703.442 116.8 702.834 115.776 701.618 115.008C700.402 114.176 698.802 113.44 696.818 112.8C694.898 112.096 692.85 111.392 690.674 110.688C688.562 109.92 686.514 108.96 684.53 107.808C682.61 106.592 681.042 105.056 679.826 103.2C678.61 101.28 678.002 98.912 678.002 96.096C678.002 92.896 678.802 90.176 680.402 87.936C682.002 85.632 684.21 83.904 687.026 82.752C689.842 81.536 693.074 80.928 696.722 80.928C698.834 80.928 700.754 81.056 702.482 81.312C704.274 81.568 706.002 81.984 707.666 82.56C709.33 83.072 711.09 83.776 712.946 84.672V97.344C711.346 96.32 709.554 95.392 707.57 94.56C705.586 93.664 703.634 92.96 701.714 92.448C699.858 91.872 698.162 91.584 696.626 91.584C694.962 91.584 693.682 91.936 692.786 92.64C691.954 93.28 691.538 94.08 691.538 95.04C691.538 96.256 692.146 97.28 693.362 98.112C694.578 98.88 696.146 99.616 698.066 100.32C699.986 100.96 702.034 101.696 704.21 102.528C706.386 103.36 708.434 104.384 710.354 105.6C712.338 106.816 713.938 108.352 715.154 110.208C716.37 112.064 716.978 114.4 716.978 117.216C716.978 120.416 716.178 123.2 714.578 125.568C712.978 127.936 710.706 129.792 707.762 131.136C704.882 132.416 701.458 133.056 697.49 133.056Z" fill="black"/>
<path d="M192.1 196V160.95H200.9V188.3H217.9V196H192.1ZM240.08 196L255.08 160.75H263.48L278.48 196H269.03L266.18 189.15H252.18L249.38 196H240.08ZM254.78 182.25H263.58L259.23 171.15L254.78 182.25ZM302.678 196V160.95H319.228C321.628 160.95 323.711 161.3 325.478 162C327.278 162.667 328.678 163.65 329.678 164.95C330.678 166.25 331.178 167.85 331.178 169.75C331.178 171.783 330.695 173.45 329.728 174.75C328.761 176.05 327.461 177.033 325.828 177.7C328.095 178.3 329.861 179.3 331.128 180.7C332.395 182.067 333.028 183.917 333.028 186.25C333.028 188.217 332.511 189.933 331.478 191.4C330.445 192.867 328.928 194 326.928 194.8C324.928 195.6 322.461 196 319.528 196H302.678ZM311.228 188.9H318.778C320.545 188.9 321.895 188.567 322.828 187.9C323.761 187.233 324.228 186.3 324.228 185.1C324.228 183.967 323.761 183.083 322.828 182.45C321.895 181.783 320.428 181.45 318.428 181.45H311.228V188.9ZM311.228 175.15H317.328C318.995 175.15 320.245 174.833 321.078 174.2C321.945 173.567 322.378 172.683 322.378 171.55C322.378 170.417 321.961 169.55 321.128 168.95C320.295 168.35 319.095 168.05 317.528 168.05H311.228V175.15ZM372.832 196.6C370.032 196.6 367.265 196.167 364.532 195.3C361.832 194.4 359.432 192.983 357.332 191.05V183.05C358.765 184.25 360.332 185.333 362.032 186.3C363.732 187.233 365.499 187.967 367.332 188.5C369.199 189 371.015 189.25 372.782 189.25C373.415 189.25 374.115 189.2 374.882 189.1C375.682 188.967 376.365 188.7 376.932 188.3C377.499 187.867 377.782 187.217 377.782 186.35C377.782 185.517 377.432 184.85 376.732 184.35C376.065 183.85 375.165 183.417 374.032 183.05C372.899 182.65 371.649 182.267 370.282 181.9C368.949 181.5 367.615 181.05 366.282 180.55C364.949 180.017 363.715 179.367 362.582 178.6C361.449 177.8 360.532 176.8 359.832 175.6C359.165 174.367 358.832 172.85 358.832 171.05C358.832 168.65 359.449 166.667 360.682 165.1C361.949 163.5 363.565 162.317 365.532 161.55C367.532 160.75 369.665 160.35 371.932 160.35C374.732 160.35 377.215 160.717 379.382 161.45C381.582 162.183 383.582 163.267 385.382 164.7V172.95C384.215 171.883 382.899 170.95 381.432 170.15C379.999 169.317 378.515 168.667 376.982 168.2C375.482 167.7 374.015 167.45 372.582 167.45C370.915 167.45 369.682 167.75 368.882 168.35C368.115 168.917 367.732 169.567 367.732 170.3C367.732 171.133 368.065 171.8 368.732 172.3C369.399 172.8 370.299 173.233 371.432 173.6C372.565 173.933 373.799 174.3 375.132 174.7C376.465 175.067 377.799 175.517 379.132 176.05C380.499 176.55 381.732 177.233 382.832 178.1C383.965 178.933 384.865 180 385.532 181.3C386.232 182.6 386.582 184.217 386.582 186.15C386.582 187.917 386.215 189.467 385.482 190.8C384.782 192.1 383.782 193.183 382.482 194.05C381.215 194.883 379.765 195.517 378.132 195.95C376.499 196.383 374.732 196.6 372.832 196.6Z" fill="#063CE6"/>
<path d="M86 107L0 195H86V107Z" fill="#0252FA"/>
<path d="M86 0L0 86V166L86 80V0Z" fill="black"/>
<rect x="100" y="151" width="44" height="44" fill="#F39A09"/>
<rect x="598" y="57" width="20" height="20" rx="10" fill="#F39A09"/>
</svg>
