<svg width="895" height="185" viewBox="0 0 895 185" fill="none" xmlns="http://www.w3.org/2000/svg">
<path d="M80.4735 151.021L14.5515 102.077C12.4927 100.548 9.65327 100.657 7.71697 102.339L1.89123 107.4C-0.733366 109.68 -0.607301 113.806 2.15157 115.92L80.3851 175.873C82.2628 177.312 84.8485 177.379 86.7975 176.039L137.62 141.095C140.572 139.066 140.821 134.786 138.126 132.425L131.521 126.638C129.675 125.021 126.984 124.833 124.933 126.176L86.7172 151.205C84.8021 152.46 82.3119 152.386 80.4735 151.021Z" fill="#F39A09"/>
<path d="M736.96 167C734.567 167 732.98 167.049 732.199 167.146V134.383C732.59 134.48 733.396 134.529 734.616 134.529C735.853 134.529 737.285 134.497 738.913 134.432V161.141H743.967C745.432 161.141 746.604 161.092 747.482 160.994C747.368 164.803 747.312 166.78 747.312 166.927V167.171C745.716 167.057 743.039 167 739.279 167H736.96ZM789.333 165.486C787.022 166.74 784.93 167.366 783.059 167.366C781.187 167.366 779.584 167.195 778.249 166.854C776.914 166.495 775.783 165.975 774.855 165.291C772.967 163.908 772.023 161.906 772.023 159.285C772.023 156.941 773.179 154.988 775.49 153.426C777.997 151.733 781.398 150.887 785.695 150.887L786.672 150.911C786.867 150.927 787.087 150.944 787.331 150.96C787.575 150.96 787.795 150.976 787.99 151.009C787.86 148.405 786.737 146.883 784.621 146.443C783.921 146.297 783.173 146.224 782.375 146.224C781.594 146.224 780.821 146.297 780.056 146.443C779.307 146.574 778.575 146.753 777.858 146.98C776.28 147.485 775.148 148.063 774.465 148.714L774.392 148.665L773.659 143.27C776.54 141.756 779.689 140.999 783.107 140.999C788.413 140.999 791.807 142.911 793.288 146.736C793.76 147.957 793.996 149.332 793.996 150.862V159.7C793.996 161.588 794.663 162.874 795.998 163.558L791.579 167.61C790.651 167.122 789.903 166.414 789.333 165.486ZM788.015 155.403C787.575 155.322 787.119 155.281 786.647 155.281H785.671C782.074 155.281 779.787 156.079 778.811 157.674C778.518 158.146 778.371 158.642 778.371 159.163C778.371 159.684 778.461 160.148 778.64 160.555C778.835 160.945 779.152 161.271 779.592 161.531C780.438 162.02 781.691 162.264 783.352 162.264C785.028 162.264 786.59 161.865 788.039 161.067C788.023 160.888 788.015 160.701 788.015 160.506V155.403ZM827.741 142.415C829.564 141.471 831.428 140.999 833.332 140.999C835.236 140.999 836.872 141.3 838.239 141.902C839.623 142.488 840.835 143.335 841.877 144.441C844.139 146.899 845.271 150.008 845.271 153.768C845.271 157.885 844.042 161.206 841.584 163.729C839.224 166.154 836.286 167.366 832.771 167.366C829.678 167.366 827.131 166.561 825.129 164.949C822.883 163.126 821.76 160.612 821.76 157.405V130.672H827.741V142.415ZM827.741 157.332C827.741 160.197 829.523 161.629 833.088 161.629C834.829 161.629 836.294 160.864 837.482 159.334C838.687 157.771 839.289 155.826 839.289 153.499C839.289 151.155 838.654 149.389 837.385 148.201C836.245 147.143 834.715 146.614 832.795 146.614C831.639 146.614 830.362 147.005 828.962 147.786C828.522 148.03 828.116 148.299 827.741 148.592V157.332ZM879.235 167.366C874.646 167.366 871.187 166.528 868.859 164.852C868.892 164.363 868.941 163.81 869.006 163.191L869.226 161.434C869.356 160.278 869.437 159.562 869.47 159.285C869.502 158.992 869.527 158.838 869.543 158.821C869.559 158.789 869.689 158.919 869.934 159.212C870.178 159.489 870.642 159.83 871.325 160.237C872.009 160.644 872.798 161.002 873.693 161.312C875.63 161.979 877.648 162.312 879.748 162.312C882.564 162.312 883.972 161.377 883.972 159.505C883.972 158.903 883.703 158.455 883.166 158.162C882.206 157.674 880.79 157.308 878.918 157.063C877.062 156.803 875.541 156.429 874.353 155.94C873.164 155.452 872.196 154.866 871.447 154.183C870.064 152.897 869.372 151.212 869.372 149.129C869.372 146.59 870.349 144.596 872.302 143.147C874.239 141.715 876.916 140.999 880.334 140.999C883.719 140.999 886.608 141.959 889.001 143.88C888.887 144.303 888.765 144.71 888.635 145.101C888.26 146.175 887.984 146.948 887.805 147.42L887.243 148.86C887.211 148.991 887.186 149.056 887.17 149.056C887.137 149.056 887.007 148.885 886.779 148.543C885.754 147.355 884.159 146.574 881.994 146.199C881.327 146.069 880.643 146.004 879.943 146.004C876.981 146.004 875.5 146.899 875.5 148.689C875.5 149.308 875.809 149.78 876.428 150.105C877.583 150.724 879.162 151.18 881.164 151.473C883.182 151.766 884.712 152.164 885.754 152.669C886.796 153.157 887.634 153.751 888.269 154.451C889.44 155.721 890.026 157.405 890.026 159.505C890.026 161.8 889.107 163.663 887.268 165.096C885.347 166.609 882.67 167.366 879.235 167.366Z" fill="#E25A34"/>
<path d="M186.04 113.08C180.68 113.08 175.88 111.68 171.64 108.88C167.48 106 164.16 102.08 161.68 97.12C159.2 92.08 157.96 86.4 157.96 80.08C157.96 73.6 159.2 67.88 161.68 62.92C164.16 57.96 167.56 54.08 171.88 51.28C176.2 48.4 181.12 46.96 186.64 46.96C189.68 46.96 192.44 47.4 194.92 48.28C197.48 49.16 199.72 50.4 201.64 52C203.56 53.52 205.2 55.32 206.56 57.4C207.92 59.4 208.92 61.56 209.56 63.88L205.6 63.4V48.28H224.68V112H205.24V96.64L209.56 96.52C208.92 98.76 207.88 100.88 206.44 102.88C205 104.88 203.24 106.64 201.16 108.16C199.08 109.68 196.76 110.88 194.2 111.76C191.64 112.64 188.92 113.08 186.04 113.08ZM191.32 96.88C194.28 96.88 196.84 96.2 199 94.84C201.16 93.48 202.84 91.56 204.04 89.08C205.24 86.52 205.84 83.52 205.84 80.08C205.84 76.64 205.24 73.68 204.04 71.2C202.84 68.64 201.16 66.68 199 65.32C196.84 63.88 194.28 63.16 191.32 63.16C188.44 63.16 185.92 63.88 183.76 65.32C181.68 66.68 180.04 68.64 178.84 71.2C177.64 73.68 177.04 76.64 177.04 80.08C177.04 83.52 177.64 86.52 178.84 89.08C180.04 91.56 181.68 93.48 183.76 94.84C185.92 96.2 188.44 96.88 191.32 96.88ZM274.17 113.32C269.45 113.32 265.41 112.32 262.05 110.32C258.77 108.24 256.21 105.28 254.37 101.44C252.61 97.6 251.73 93 251.73 87.64V48.28H271.05V85C271.05 87.56 271.45 89.76 272.25 91.6C273.05 93.44 274.25 94.88 275.85 95.92C277.45 96.88 279.37 97.36 281.61 97.36C283.29 97.36 284.81 97.08 286.17 96.52C287.61 95.96 288.81 95.2 289.77 94.24C290.81 93.2 291.61 92.04 292.17 90.76C292.73 89.4 293.01 87.92 293.01 86.32V48.28H312.33V112H294.21L293.37 98.92L296.97 97.48C296.01 100.52 294.41 103.24 292.17 105.64C289.93 107.96 287.25 109.84 284.13 111.28C281.01 112.64 277.69 113.32 274.17 113.32ZM341.442 112V48.28H359.682L360.522 69.04L356.922 65.08C357.882 61.64 359.442 58.56 361.602 55.84C363.842 53.12 366.442 50.96 369.402 49.36C372.362 47.76 375.522 46.96 378.882 46.96C380.322 46.96 381.642 47.08 382.842 47.32C384.122 47.56 385.282 47.84 386.322 48.16L381.042 69.4C380.162 68.84 378.962 68.4 377.442 68.08C376.002 67.68 374.482 67.48 372.882 67.48C371.122 67.48 369.482 67.8 367.962 68.44C366.442 69 365.162 69.84 364.122 70.96C363.082 72.08 362.242 73.4 361.602 74.92C361.042 76.44 360.762 78.16 360.762 80.08V112H341.442ZM428.876 113.08C423.516 113.08 418.716 111.68 414.476 108.88C410.316 106 406.996 102.08 404.516 97.12C402.036 92.08 400.796 86.4 400.796 80.08C400.796 73.6 402.036 67.88 404.516 62.92C406.996 57.96 410.396 54.08 414.716 51.28C419.036 48.4 423.956 46.96 429.476 46.96C432.516 46.96 435.276 47.4 437.756 48.28C440.316 49.16 442.556 50.4 444.476 52C446.396 53.52 448.036 55.32 449.396 57.4C450.756 59.4 451.756 61.56 452.396 63.88L448.436 63.4V48.28H467.516V112H448.076V96.64L452.396 96.52C451.756 98.76 450.716 100.88 449.276 102.88C447.836 104.88 446.076 106.64 443.996 108.16C441.916 109.68 439.596 110.88 437.036 111.76C434.476 112.64 431.756 113.08 428.876 113.08ZM434.156 96.88C437.116 96.88 439.676 96.2 441.836 94.84C443.996 93.48 445.676 91.56 446.876 89.08C448.076 86.52 448.676 83.52 448.676 80.08C448.676 76.64 448.076 73.68 446.876 71.2C445.676 68.64 443.996 66.68 441.836 65.32C439.676 63.88 437.116 63.16 434.156 63.16C431.276 63.16 428.756 63.88 426.596 65.32C424.516 66.68 422.876 68.64 421.676 71.2C420.476 73.68 419.876 76.64 419.876 80.08C419.876 83.52 420.476 86.52 421.676 89.08C422.876 91.56 424.516 93.48 426.596 94.84C428.756 96.2 431.276 96.88 434.156 96.88Z" fill="#063CE6"/>
<path d="M487.64 112V23.2H506.84V112H487.64ZM564.793 113.2C558.153 113.2 552.233 111.76 547.033 108.88C541.913 106 537.833 102.08 534.793 97.12C531.833 92.16 530.353 86.48 530.353 80.08C530.353 73.68 531.833 68 534.793 63.04C537.833 58.08 541.913 54.16 547.033 51.28C552.233 48.4 558.153 46.96 564.793 46.96C571.433 46.96 577.313 48.4 582.433 51.28C587.633 54.16 591.713 58.08 594.673 63.04C597.633 68 599.113 73.68 599.113 80.08C599.113 86.48 597.633 92.16 594.673 97.12C591.713 102.08 587.633 106 582.433 108.88C577.313 111.76 571.433 113.2 564.793 113.2ZM564.793 96.64C567.673 96.64 570.233 95.92 572.473 94.48C574.713 93.04 576.473 91.08 577.753 88.6C579.033 86.12 579.633 83.28 579.553 80.08C579.633 76.88 579.033 74.04 577.753 71.56C576.473 69 574.713 67 572.473 65.56C570.233 64.12 567.673 63.4 564.793 63.4C561.913 63.4 559.313 64.12 556.993 65.56C554.753 67 552.993 69 551.713 71.56C550.433 74.04 549.833 76.88 549.913 80.08C549.833 83.28 550.433 86.12 551.713 88.6C552.993 91.08 554.753 93.04 556.993 94.48C559.313 95.92 561.913 96.64 564.793 96.64ZM652.828 139.6C647.628 139.6 642.428 138.84 637.228 137.32C632.108 135.8 627.948 133.84 624.748 131.44L631.468 118C633.148 119.12 634.988 120.08 636.988 120.88C639.068 121.76 641.228 122.44 643.468 122.92C645.708 123.4 647.988 123.64 650.308 123.64C654.388 123.64 657.708 123.04 660.268 121.84C662.828 120.64 664.748 118.8 666.028 116.32C667.308 113.92 667.948 110.88 667.948 107.2V96.52L671.668 97.12C671.108 99.76 669.708 102.16 667.468 104.32C665.308 106.48 662.628 108.24 659.428 109.6C656.228 110.88 652.828 111.52 649.228 111.52C643.468 111.52 638.308 110.2 633.748 107.56C629.268 104.84 625.708 101.12 623.068 96.4C620.508 91.6 619.228 86.08 619.228 79.84C619.228 73.44 620.508 67.8 623.068 62.92C625.628 57.96 629.148 54.08 633.628 51.28C638.108 48.4 643.148 46.96 648.748 46.96C651.148 46.96 653.428 47.24 655.588 47.8C657.828 48.36 659.868 49.12 661.708 50.08C663.628 50.96 665.308 52.04 666.748 53.32C668.268 54.52 669.468 55.84 670.348 57.28C671.308 58.72 671.948 60.2 672.268 61.72L668.308 62.68L669.028 48.28H687.268V106.84C687.268 112.04 686.468 116.64 684.868 120.64C683.348 124.72 681.068 128.16 678.028 130.96C675.068 133.84 671.468 136 667.228 137.44C662.988 138.88 658.188 139.6 652.828 139.6ZM653.308 96.64C656.428 96.64 659.108 95.96 661.348 94.6C663.668 93.16 665.428 91.2 666.628 88.72C667.908 86.24 668.548 83.32 668.548 79.96C668.548 76.6 667.908 73.68 666.628 71.2C665.428 68.64 663.668 66.68 661.348 65.32C659.108 63.88 656.428 63.16 653.308 63.16C650.268 63.16 647.628 63.88 645.388 65.32C643.148 66.68 641.388 68.64 640.108 71.2C638.908 73.68 638.308 76.6 638.308 79.96C638.308 83.32 638.908 86.24 640.108 88.72C641.388 91.2 643.148 93.16 645.388 94.6C647.628 95.96 650.268 96.64 653.308 96.64ZM717.022 112V48.28H736.222V112H717.022ZM726.622 35.68C723.022 35.68 720.182 34.84 718.102 33.16C716.102 31.4 715.102 28.92 715.102 25.72C715.102 22.84 716.142 20.48 718.222 18.64C720.302 16.8 723.102 15.88 726.622 15.88C730.222 15.88 733.022 16.76 735.022 18.52C737.022 20.2 738.022 22.6 738.022 25.72C738.022 28.68 736.982 31.08 734.902 32.92C732.902 34.76 730.142 35.68 726.622 35.68ZM794.222 113.2C788.062 113.2 782.542 111.76 777.662 108.88C772.782 106 768.902 102.08 766.022 97.12C763.222 92.08 761.822 86.4 761.822 80.08C761.822 73.76 763.222 68.12 766.022 63.16C768.902 58.12 772.782 54.16 777.662 51.28C782.542 48.4 788.062 46.96 794.222 46.96C799.902 46.96 805.102 47.96 809.822 49.96C814.622 51.96 818.422 54.76 821.222 58.36L810.782 70.84C809.662 69.56 808.342 68.36 806.822 67.24C805.302 66.12 803.622 65.24 801.782 64.6C799.942 63.96 798.022 63.64 796.022 63.64C792.982 63.64 790.302 64.36 787.982 65.8C785.662 67.16 783.862 69.08 782.582 71.56C781.302 74.04 780.662 76.88 780.662 80.08C780.662 83.12 781.302 85.88 782.582 88.36C783.942 90.84 785.782 92.8 788.102 94.24C790.422 95.68 793.062 96.4 796.022 96.4C798.102 96.4 800.022 96.16 801.782 95.68C803.542 95.12 805.142 94.32 806.582 93.28C808.102 92.24 809.502 90.96 810.782 89.44L821.102 102.04C818.382 105.48 814.582 108.2 809.702 110.2C804.902 112.2 799.742 113.2 794.222 113.2ZM865.133 113.2C858.893 113.2 853.373 112.2 848.573 110.2C843.853 108.2 840.093 105.52 837.293 102.16L848.933 92.08C851.413 94.56 854.213 96.4 857.333 97.6C860.453 98.72 863.413 99.28 866.213 99.28C867.333 99.28 868.333 99.16 869.213 98.92C870.093 98.68 870.813 98.36 871.373 97.96C872.013 97.48 872.493 96.96 872.813 96.4C873.133 95.76 873.293 95.04 873.293 94.24C873.293 92.64 872.573 91.4 871.133 90.52C870.413 90.12 869.213 89.64 867.533 89.08C865.853 88.52 863.693 87.88 861.053 87.16C857.293 86.2 854.013 85.08 851.213 83.8C848.493 82.44 846.253 80.88 844.493 79.12C842.893 77.44 841.653 75.6 840.773 73.6C839.893 71.52 839.453 69.2 839.453 66.64C839.453 63.68 840.133 61 841.493 58.6C842.933 56.2 844.813 54.12 847.133 52.36C849.533 50.6 852.253 49.28 855.293 48.4C858.413 47.44 861.613 46.96 864.893 46.96C868.413 46.96 871.773 47.36 874.973 48.16C878.173 48.96 881.133 50.08 883.853 51.52C886.653 52.96 889.133 54.68 891.293 56.68L881.213 67.96C879.773 66.6 878.133 65.4 876.293 64.36C874.533 63.24 872.693 62.36 870.773 61.72C868.853 61.08 867.093 60.76 865.493 60.76C864.293 60.76 863.213 60.88 862.253 61.12C861.373 61.28 860.613 61.6 859.973 62.08C859.333 62.48 858.853 63 858.533 63.64C858.213 64.2 858.053 64.88 858.053 65.68C858.053 66.48 858.253 67.24 858.653 67.96C859.133 68.68 859.773 69.28 860.573 69.76C861.373 70.24 862.653 70.8 864.413 71.44C866.173 72 868.573 72.72 871.613 73.6C875.373 74.64 878.613 75.8 881.333 77.08C884.053 78.36 886.213 79.88 887.813 81.64C889.093 83 890.053 84.6 890.693 86.44C891.333 88.2 891.653 90.12 891.653 92.2C891.653 96.28 890.493 99.92 888.173 103.12C885.933 106.24 882.813 108.72 878.813 110.56C874.813 112.32 870.253 113.2 865.133 113.2Z" fill="#F39A09"/>
<path d="M133.711 64.3808L127.334 68.9672C125.287 70.4394 122.501 70.3315 120.574 68.7054L88.3795 41.5387C86.4385 39.9008 83.6283 39.8046 81.5797 41.3059L38.5275 72.8573C35.5479 75.0409 35.5254 79.4821 38.4827 81.6958L81.9474 114.232C83.8185 115.633 86.3705 115.698 88.3109 114.395L119.588 93.395C121.491 92.1173 123.987 92.1533 125.852 93.4854L133.429 98.8962C136.606 101.165 136.473 105.929 133.175 108.018L85.5954 138.147C83.6317 139.39 81.0981 139.265 79.2662 137.834L4.11476 79.1449C1.17273 76.8474 1.32541 72.3494 4.41647 70.2566L81.6766 17.9459C83.6908 16.5822 86.3616 16.7031 88.2443 18.2432L133.982 55.6592C136.781 57.9488 136.647 62.2695 133.711 64.3808Z" fill="#063CE6"/>
<path d="M77.4813 62.0076L62.9572 83.5639C60.0467 87.8835 62.2756 93.7832 67.3151 95.0994C69.4988 95.6697 71.8231 95.2342 73.6522 93.9121L79.8707 89.4172C83.4882 86.8024 88.4006 86.9017 91.9095 89.6605L97.4203 93.9932C99.0402 95.2668 101.136 95.7683 103.157 95.3658C107.948 94.4116 110.342 88.9933 107.821 84.8089L94.3399 62.4346C90.5664 56.1717 81.567 55.9437 77.4813 62.0076Z" fill="#E25A34"/>
</svg>
