<svg width="740" height="163" viewBox="0 0 740 163" fill="none" xmlns="http://www.w3.org/2000/svg">
<path d="M717.752 101.654C712.086 101.654 707.219 100.354 703.152 97.7542C699.152 95.0875 696.486 91.4875 695.152 86.9542L707.452 83.8542L708.652 84.1542C709.186 86.0208 710.319 87.4875 712.052 88.5542C713.852 89.6208 715.919 90.1542 718.252 90.1542C720.519 90.1542 722.419 89.7208 723.952 88.8542C725.486 87.9208 726.252 86.7208 726.252 85.2542C726.252 83.9875 725.786 82.9875 724.852 82.2542C723.919 81.5208 722.519 80.9542 720.652 80.5542L711.052 78.4542C706.319 77.3875 702.652 75.5875 700.052 73.0542C697.519 70.4542 696.252 67.2875 696.252 63.5542C696.252 60.3542 697.152 57.5875 698.952 55.2542C700.752 52.8542 703.219 50.9875 706.352 49.6542C709.552 48.3208 713.152 47.6542 717.152 47.6542C722.552 47.6542 727.119 48.9875 730.852 51.6542C734.652 54.2542 737.152 57.8875 738.352 62.5542L726.952 65.0542L725.852 64.8542C725.386 63.1875 724.252 61.8208 722.452 60.7542C720.719 59.6875 718.752 59.1542 716.552 59.1542C714.552 59.1542 712.852 59.5208 711.452 60.2542C710.119 60.9875 709.452 62.0208 709.452 63.3542C709.452 64.2208 709.819 65.0542 710.552 65.8542C711.352 66.5875 712.552 67.1208 714.152 67.4542L723.752 69.6542C728.886 70.8542 732.786 72.6208 735.452 74.9542C738.119 77.2208 739.452 80.3875 739.452 84.4542C739.452 87.9208 738.519 90.9542 736.652 93.5542C734.786 96.1542 732.219 98.1542 728.952 99.5542C725.686 100.954 721.952 101.654 717.752 101.654Z" fill="black"/>
<path d="M658.752 101.654C653.418 101.654 648.718 100.521 644.652 98.2542C640.652 95.9875 637.518 92.8208 635.252 88.7542C632.985 84.6875 631.852 79.9875 631.852 74.6542C631.852 69.3208 632.985 64.6208 635.252 60.5542C637.518 56.4875 640.652 53.3208 644.652 51.0542C648.718 48.7875 653.418 47.6542 658.752 47.6542C662.885 47.6542 666.552 48.3208 669.752 49.6542C673.018 50.9208 675.752 52.8875 677.952 55.5542C680.218 58.2208 681.952 61.5542 683.152 65.5542L672.052 68.6542H670.852C669.985 65.8542 668.385 63.6542 666.052 62.0542C663.785 60.3875 661.352 59.5542 658.752 59.5542C656.018 59.5542 653.652 60.1875 651.652 61.4542C649.652 62.6542 648.085 64.3875 646.952 66.6542C645.885 68.8542 645.352 71.5208 645.352 74.6542C645.352 77.7208 645.885 80.3875 646.952 82.6542C648.085 84.9208 649.652 86.6875 651.652 87.9542C653.652 89.1542 656.018 89.7542 658.752 89.7542C660.685 89.7542 662.485 89.3875 664.152 88.6542C665.885 87.9208 667.385 86.8875 668.652 85.5542C669.918 84.1542 670.818 82.5208 671.352 80.6542H672.552L683.652 83.7542C682.452 87.7542 680.718 91.0875 678.452 93.7542C676.185 96.4208 673.418 98.4208 670.152 99.7542C666.885 101.021 663.085 101.654 658.752 101.654Z" fill="black"/>
<path d="M602.863 100.054V49.2542H616.363V100.054H602.863ZM609.663 42.8542C607.396 42.8542 605.463 42.0542 603.863 40.4542C602.263 38.8542 601.463 36.9208 601.463 34.6542C601.463 32.4542 602.263 30.5542 603.863 28.9542C605.463 27.3542 607.396 26.5542 609.663 26.5542C611.863 26.5542 613.763 27.3542 615.363 28.9542C616.963 30.5542 617.763 32.4542 617.763 34.6542C617.763 36.9208 616.963 38.8542 615.363 40.4542C613.763 42.0542 611.863 42.8542 609.663 42.8542Z" fill="black"/>
<path d="M562.138 120.054C555.205 120.054 549.738 118.721 545.738 116.054C541.738 113.454 539.738 109.821 539.738 105.154C539.738 102.021 540.605 99.3209 542.338 97.0542C544.072 94.7209 546.572 92.9208 549.838 91.6542L556.338 96.7542C555.005 97.2875 553.938 98.1542 553.138 99.3542C552.405 100.488 552.038 101.721 552.038 103.054C552.038 104.588 552.605 106.021 553.738 107.354C554.872 108.754 557.038 109.454 560.238 109.454H567.338C570.672 109.454 573.105 109.021 574.638 108.154C576.238 107.288 577.038 106.054 577.038 104.454C577.038 102.988 576.438 101.888 575.238 101.154C574.038 100.421 572.438 100.054 570.438 100.054H558.638C555.572 100.054 552.838 99.5542 550.438 98.5542C548.038 97.4875 546.138 96.0542 544.738 94.2542C543.405 92.4542 542.738 90.4208 542.738 88.1542C542.738 85.3542 543.572 82.9542 545.238 80.9542C546.972 78.8875 549.372 77.2209 552.438 75.9542L559.638 81.4542C558.105 81.4542 556.872 81.9542 555.938 82.9542C555.005 83.8875 554.538 84.8208 554.538 85.7542C554.538 86.9542 555.005 87.9208 555.938 88.6542C556.938 89.3208 558.538 89.6542 560.738 89.6542H572.338C577.472 89.6542 581.572 90.9542 584.638 93.5542C587.772 96.1542 589.338 99.6209 589.338 103.954C589.338 108.821 587.338 112.721 583.338 115.654C579.338 118.588 573.938 120.054 567.138 120.054H562.138ZM564.938 83.6542C560.672 83.6542 556.938 82.8875 553.738 81.3542C550.538 79.8209 548.038 77.7208 546.238 75.0542C544.438 72.3209 543.538 69.1875 543.538 65.6542C543.538 62.1208 544.438 59.0208 546.238 56.3542C548.038 53.6208 550.538 51.4875 553.738 49.9542C556.938 48.4208 560.672 47.6542 564.938 47.6542C569.205 47.6542 572.938 48.4208 576.138 49.9542C579.338 51.4875 581.838 53.6208 583.638 56.3542C585.438 59.0208 586.338 62.1208 586.338 65.6542C586.338 69.1875 585.438 72.3209 583.638 75.0542C581.838 77.7208 579.338 79.8209 576.138 81.3542C572.938 82.8875 569.205 83.6542 564.938 83.6542ZM564.938 73.2542C567.605 73.2542 569.738 72.5542 571.338 71.1542C573.005 69.7542 573.838 67.9208 573.838 65.6542C573.838 63.3875 573.005 61.5542 571.338 60.1542C569.738 58.7542 567.605 58.0542 564.938 58.0542C562.272 58.0542 560.105 58.7542 558.438 60.1542C556.838 61.5542 556.038 63.3875 556.038 65.6542C556.038 67.9208 556.838 69.7542 558.438 71.1542C560.105 72.5542 562.272 73.2542 564.938 73.2542ZM580.238 57.3542L571.838 53.8542C571.838 50.7875 572.438 48.0542 573.638 45.6542C574.838 43.1875 576.472 41.2542 578.538 39.8542C580.605 38.4542 582.905 37.7542 585.438 37.7542C586.372 37.7542 587.172 37.7875 587.838 37.8542C588.572 37.8542 589.072 37.9208 589.338 38.0542V49.1542L588.838 50.1542C588.172 49.9542 587.305 49.8542 586.238 49.8542C584.238 49.8542 582.738 50.5542 581.738 51.9542C580.738 53.3542 580.238 55.1542 580.238 57.3542Z" fill="black"/>
<path d="M502.754 101.654C497.554 101.654 492.954 100.521 488.954 98.2542C485.021 95.9208 481.921 92.7208 479.654 88.6542C477.387 84.5875 476.254 79.9208 476.254 74.6542C476.254 69.3875 477.387 64.7208 479.654 60.6542C481.921 56.5875 485.021 53.4208 488.954 51.1542C492.954 48.8208 497.554 47.6542 502.754 47.6542C507.954 47.6542 512.521 48.8208 516.454 51.1542C520.454 53.4208 523.587 56.5875 525.854 60.6542C528.121 64.7208 529.254 69.3875 529.254 74.6542C529.254 79.9208 528.121 84.5875 525.854 88.6542C523.587 92.7208 520.454 95.9208 516.454 98.2542C512.521 100.521 507.954 101.654 502.754 101.654ZM502.754 89.7542C505.421 89.7542 507.721 89.1542 509.654 87.9542C511.587 86.6875 513.087 84.9208 514.154 82.6542C515.221 80.3875 515.754 77.7208 515.754 74.6542C515.754 71.5875 515.221 68.9208 514.154 66.6542C513.087 64.3875 511.587 62.6542 509.654 61.4542C507.721 60.1875 505.421 59.5542 502.754 59.5542C500.087 59.5542 497.787 60.1875 495.854 61.4542C493.921 62.6542 492.421 64.3875 491.354 66.6542C490.287 68.9208 489.754 71.5875 489.754 74.6542C489.754 77.7208 490.287 80.3875 491.354 82.6542C492.421 84.9208 493.921 86.6875 495.854 87.9542C497.787 89.1542 500.087 89.7542 502.754 89.7542Z" fill="black"/>
<path d="M446.789 100.054V28.0542L459.989 26.4542L460.289 27.2542V100.054H446.789Z" fill="black"/>
<path d="M398.951 101.654C395.484 101.654 392.384 100.988 389.651 99.6542C386.984 98.3208 384.884 96.4542 383.351 94.0542C381.817 91.6542 381.051 88.9209 381.051 85.8542C381.051 80.9208 382.717 77.0208 386.051 74.1542C389.451 71.2208 394.384 69.4875 400.851 68.9542L420.551 67.2542V78.0542L402.551 79.5542C399.684 79.8208 397.651 80.4208 396.451 81.3542C395.317 82.2875 394.751 83.4875 394.751 84.9542C394.751 86.4208 395.451 87.6208 396.851 88.5542C398.251 89.4208 400.017 89.8542 402.151 89.8542C404.484 89.8542 406.584 89.2542 408.451 88.0542C410.384 86.8542 411.917 85.3208 413.051 83.4542C414.184 81.5208 414.751 79.4875 414.751 77.3542V69.0542C414.751 66.1875 413.751 63.8208 411.751 61.9542C409.751 60.0875 407.217 59.1542 404.151 59.1542C401.284 59.1542 398.984 59.8875 397.251 61.3542C395.517 62.7542 394.484 64.3208 394.151 66.0542H393.051L381.651 63.6542C382.651 59.1208 385.117 55.3208 389.051 52.2542C393.051 49.1875 398.084 47.6542 404.151 47.6542C411.484 47.6542 417.251 49.7208 421.451 53.8542C425.717 57.9875 427.851 63.8208 427.851 71.3542V100.054H416.151V85.2542H421.051C420.251 88.1875 418.784 90.9208 416.651 93.4542C414.584 95.9208 412.051 97.9208 409.051 99.4542C406.051 100.921 402.684 101.654 398.951 101.654Z" fill="black"/>
<path d="M340.539 100.054V49.2542H353.039V61.3542L349.739 62.0542C351.339 58.0542 353.772 54.9208 357.039 52.6542C360.306 50.3875 364.072 49.2542 368.339 49.2542H373.039V61.1542H366.339C363.806 61.1542 361.606 61.6875 359.739 62.7542C357.939 63.8208 356.539 65.3875 355.539 67.4542C354.539 69.4542 354.039 71.8542 354.039 74.6542V100.054H340.539Z" fill="black"/>
<path d="M322.499 49.2542V100.054H309.999V87.9542L313.299 87.2542C312.166 90.2542 310.566 92.8209 308.499 94.9542C306.499 97.0875 304.166 98.7542 301.499 99.9542C298.899 101.088 295.999 101.654 292.799 101.654C289.266 101.654 285.999 100.888 282.999 99.3542C279.999 97.7542 277.599 95.4209 275.799 92.3542C274.066 89.2209 273.199 85.3875 273.199 80.8542V49.2542H286.699V76.5542C286.699 79.3542 287.066 81.7542 287.799 83.7542C288.599 85.6875 289.733 87.1542 291.199 88.1542C292.666 89.1542 294.433 89.6542 296.499 89.6542C298.099 89.6542 299.866 89.2209 301.799 88.3542C303.799 87.4875 305.499 85.9208 306.899 83.6542C308.299 81.3875 308.999 78.1542 308.999 73.9542V49.2542H322.499Z" fill="black"/>
<path d="M247.5 100.054L222.2 32.1542L221.6 30.0542H235.1L261.7 99.2542V100.054H247.5ZM195 100.054V99.2542L221.6 30.0542H235.1L234.2 32.1542L208.9 100.054H195ZM207.8 84.3542L210.8 71.5542H246.9L249.9 84.3542H207.8Z" fill="black"/>
<path d="M357.87 161.434C354.226 161.434 351.317 160.674 349.144 159.154C346.992 157.613 345.818 155.47 345.62 152.726H351.943C352.184 154.056 352.821 155.048 353.853 155.702C354.884 156.357 356.3 156.684 358.101 156.684C359.725 156.684 360.933 156.452 361.723 155.987C362.535 155.502 362.941 154.784 362.941 153.834C362.941 153.095 362.689 152.525 362.184 152.124C361.701 151.702 360.889 151.375 359.747 151.142L354.116 150.002C351.569 149.475 349.681 148.62 348.452 147.437C347.223 146.255 346.608 144.704 346.608 142.782C346.608 140.355 347.563 138.455 349.473 137.082C351.405 135.71 354.028 135.024 357.343 135.024C360.68 135.024 363.369 135.742 365.411 137.177C367.453 138.613 368.583 140.619 368.803 143.194H362.48C361.866 140.787 360.032 139.584 356.981 139.584C355.642 139.584 354.588 139.816 353.82 140.281C353.051 140.724 352.667 141.368 352.667 142.212C352.667 143.479 353.611 144.302 355.499 144.682L361.394 145.854C364.05 146.382 365.982 147.247 367.189 148.451C368.397 149.654 369 151.29 369 153.359C369 155.914 368.034 157.898 366.103 159.312C364.193 160.727 361.448 161.434 357.87 161.434Z" fill="#063CE6"/>
<path d="M295.972 161.054V135.404H309.934C311.559 135.404 312.975 135.679 314.182 136.227C315.411 136.776 316.366 137.547 317.047 138.539C317.749 139.51 318.101 140.64 318.101 141.927C318.101 143.152 317.782 144.218 317.146 145.126C316.509 146.012 315.598 146.699 314.412 147.184V147.311C315.466 147.606 316.366 148.071 317.113 148.704C317.859 149.316 318.43 150.045 318.825 150.889C319.22 151.734 319.418 152.673 319.418 153.707C319.418 155.164 319.045 156.441 318.298 157.539C317.552 158.637 316.509 159.502 315.17 160.136C313.853 160.748 312.305 161.054 310.527 161.054H295.972ZM302.163 155.861H309.473C310.702 155.861 311.635 155.607 312.272 155.101C312.909 154.594 313.227 153.876 313.227 152.947C313.227 152.019 312.909 151.311 312.272 150.826C311.635 150.34 310.713 150.097 309.506 150.097H302.163V155.861ZM302.163 145.411H309.045C309.989 145.411 310.702 145.21 311.185 144.809C311.668 144.387 311.91 143.785 311.91 143.004C311.91 142.202 311.668 141.6 311.185 141.199C310.702 140.798 309.989 140.597 309.045 140.597H302.163V145.411Z" fill="#063CE6"/>
<path d="M240.845 161.054L252.074 135.404H258.331L269.428 161.054H263.072L260.537 155.227H249.571L247.003 161.054H240.845ZM251.514 150.287H258.89L255.301 141.801H255.136L251.514 150.287Z" fill="#063CE6"/>
<path d="M196.533 161.054V135.404H202.724V155.861H216.159V161.054H196.533Z" fill="#063CE6"/>
<path d="M77.5224 112.898L4.5353 148.032C-2.90301 151.613 -0.160911 162.054 8.21773 162.054H81.2048C85.6232 162.054 89.2051 158.729 89.2051 154.626V119.492C89.2051 113.923 82.8478 110.334 77.5224 112.898Z" fill="#0252FA"/>
<path d="M68.0657 8.28455L4.66567 57.467C2.95119 58.8782 2.0939 59.5838 1.47739 60.4519C0.931153 61.2211 0.525278 62.0808 0.278515 62.9914C0 64.0191 0 65.1294 0 67.35V115.766C0 122.79 0 126.301 1.47814 128.382C2.76828 130.198 4.75724 131.394 6.96627 131.682C9.4972 132.012 12.5989 130.365 18.8024 127.071L82.2024 93.4102C84.6736 92.0982 85.9092 91.4421 86.8103 90.4901C87.6072 89.6481 88.2117 88.6428 88.5817 87.544C89 86.3018 89 84.9028 89 82.1049V18.1675C89 9.50907 89 5.17985 87.2315 2.98314C85.6938 1.07325 83.3653 -0.0260498 80.9135 0.000469009C78.0935 0.0309694 74.7509 2.78216 68.0657 8.28455Z" fill="black"/>
<path d="M100.205 140.062C100.205 135.628 103.923 132.039 108.5 132.054L153.967 132.205C158.521 132.22 162.205 135.801 162.205 140.212V154.047C162.205 158.469 158.504 162.054 153.938 162.054H108.472C103.906 162.054 100.205 158.469 100.205 154.047V140.062Z" fill="#F39A09"/>
<path d="M600 33.0542C600 27.5313 604.477 23.0542 610 23.0542C615.523 23.0542 620 27.5313 620 33.0542C620 38.577 615.523 43.0542 610 43.0542C604.477 43.0542 600 38.577 600 33.0542Z" fill="#F39A09"/>
</svg>
