<svg width="985" height="199" viewBox="0 0 985 199" fill="none" xmlns="http://www.w3.org/2000/svg">
<path d="M800.2 178V138.625H808.338V170.912H820.15V178H800.2ZM860.879 178.7C858.458 178.7 856.256 178.073 854.272 176.819C852.289 175.565 850.699 173.902 849.504 171.831C848.337 169.731 847.754 167.412 847.754 164.875C847.754 162.337 848.337 160.019 849.504 157.919C850.699 155.819 852.289 154.156 854.272 152.931C856.256 151.677 858.458 151.05 860.879 151.05C862.57 151.05 864.116 151.356 865.516 151.969C866.916 152.552 868.112 153.369 869.104 154.419V151.75H875.666V178H869.104V175.331C868.112 176.381 866.916 177.212 865.516 177.825C864.116 178.408 862.57 178.7 860.879 178.7ZM861.797 172.006C863.081 172.006 864.247 171.685 865.297 171.044C866.347 170.402 867.179 169.542 867.791 168.462C868.433 167.383 868.754 166.187 868.754 164.875C868.754 163.562 868.433 162.367 867.791 161.288C867.179 160.208 866.347 159.348 865.297 158.706C864.247 158.065 863.081 157.744 861.797 157.744C860.514 157.744 859.347 158.065 858.297 158.706C857.247 159.348 856.401 160.208 855.76 161.288C855.147 162.367 854.841 163.562 854.841 164.875C854.841 166.187 855.147 167.383 855.76 168.462C856.401 169.542 857.247 170.402 858.297 171.044C859.347 171.685 860.514 172.006 861.797 172.006ZM921.371 178.7C919.709 178.7 918.177 178.408 916.777 177.825C915.407 177.242 914.211 176.44 913.19 175.419V178H906.627V136H914.24V153.413C915.202 152.654 916.282 152.071 917.477 151.662C918.673 151.254 919.971 151.05 921.371 151.05C923.821 151.05 926.038 151.677 928.021 152.931C930.004 154.156 931.579 155.819 932.746 157.919C933.942 160.019 934.54 162.337 934.54 164.875C934.54 167.412 933.942 169.731 932.746 171.831C931.579 173.902 930.004 175.565 928.021 176.819C926.038 178.073 923.821 178.7 921.371 178.7ZM920.496 172.006C921.779 172.006 922.946 171.685 923.996 171.044C925.046 170.402 925.877 169.542 926.49 168.462C927.132 167.383 927.452 166.187 927.452 164.875C927.452 163.562 927.132 162.367 926.49 161.288C925.877 160.208 925.046 159.348 923.996 158.706C922.946 158.065 921.779 157.744 920.496 157.744C919.213 157.744 918.046 158.065 916.996 158.706C915.946 159.348 915.1 160.208 914.459 161.288C913.846 162.367 913.54 163.562 913.54 164.875C913.54 166.187 913.846 167.383 914.459 168.462C915.1 169.542 915.946 170.402 916.996 171.044C918.046 171.685 919.213 172.006 920.496 172.006ZM972.807 178.875C971.028 178.875 969.22 178.583 967.382 178C965.574 177.417 964.16 176.629 963.139 175.637L965.02 168.462C965.866 169.629 967.032 170.65 968.52 171.525C970.037 172.4 971.597 172.838 973.201 172.838C974.28 172.838 975.053 172.633 975.52 172.225C976.016 171.817 976.264 171.321 976.264 170.737C976.264 170.067 976.016 169.585 975.52 169.294C975.024 168.973 974.514 168.71 973.989 168.506L970.314 167.106C969.497 166.785 968.564 166.348 967.514 165.794C966.464 165.24 965.545 164.452 964.757 163.431C963.999 162.41 963.62 161.069 963.62 159.406C963.62 157.89 963.999 156.49 964.757 155.206C965.516 153.923 966.61 152.887 968.039 152.1C969.497 151.283 971.247 150.875 973.289 150.875C975.185 150.875 976.949 151.196 978.582 151.837C980.245 152.479 981.455 153.194 982.214 153.981L980.464 160.894C979.472 159.61 978.291 158.633 976.92 157.962C975.578 157.262 974.295 156.913 973.07 156.913C972.137 156.913 971.451 157.102 971.014 157.481C970.576 157.86 970.357 158.298 970.357 158.794C970.357 159.173 970.503 159.552 970.795 159.931C971.116 160.281 971.641 160.602 972.37 160.894L975.782 162.162C976.774 162.512 977.824 162.979 978.932 163.562C980.07 164.146 981.032 164.962 981.82 166.012C982.607 167.033 983.001 168.448 983.001 170.256C983.001 172.794 982.053 174.865 980.157 176.469C978.291 178.073 975.841 178.875 972.807 178.875Z" fill="#E25A34"/>
<path d="M958.07 109.2C951.83 109.2 946.31 108.2 941.51 106.2C936.79 104.2 933.03 101.52 930.23 98.16L941.87 88.08C944.35 90.56 947.151 92.4 950.271 93.6C953.391 94.72 956.351 95.28 959.151 95.28C960.271 95.28 961.271 95.16 962.151 94.92C963.031 94.68 963.75 94.36 964.31 93.96C964.95 93.48 965.43 92.96 965.75 92.4C966.07 91.76 966.23 91.04 966.23 90.24C966.23 88.64 965.51 87.4 964.07 86.52C963.35 86.12 962.151 85.64 960.471 85.08C958.791 84.52 956.63 83.88 953.99 83.16C950.23 82.2 946.951 81.08 944.151 79.8C941.431 78.44 939.19 76.88 937.43 75.12C935.83 73.44 934.591 71.6 933.711 69.6C932.831 67.52 932.391 65.2 932.391 62.64C932.391 59.68 933.07 57 934.43 54.6C935.87 52.2 937.75 50.12 940.07 48.36C942.47 46.6 945.19 45.28 948.23 44.4C951.35 43.44 954.551 42.96 957.831 42.96C961.351 42.96 964.711 43.36 967.911 44.16C971.111 44.96 974.071 46.08 976.791 47.52C979.591 48.96 982.07 50.68 984.23 52.68L974.151 63.96C972.711 62.6 971.07 61.4 969.23 60.36C967.47 59.24 965.631 58.36 963.711 57.72C961.791 57.08 960.03 56.76 958.43 56.76C957.23 56.76 956.15 56.88 955.19 57.12C954.31 57.28 953.551 57.6 952.911 58.08C952.271 58.48 951.791 59 951.471 59.64C951.151 60.2 950.99 60.88 950.99 61.68C950.99 62.48 951.191 63.24 951.591 63.96C952.071 64.68 952.71 65.28 953.51 65.76C954.31 66.24 955.591 66.8 957.351 67.44C959.111 68 961.51 68.72 964.55 69.6C968.31 70.64 971.551 71.8 974.271 73.08C976.991 74.36 979.15 75.88 980.75 77.64C982.03 79 982.99 80.6 983.63 82.44C984.27 84.2 984.591 86.12 984.591 88.2C984.591 92.28 983.43 95.92 981.11 99.12C978.87 102.24 975.75 104.72 971.75 106.56C967.75 108.32 963.19 109.2 958.07 109.2Z" fill="#F39A09"/>
<path d="M881.16 109.2C875 109.2 869.48 107.76 864.6 104.88C859.72 102 855.84 98.08 852.96 93.12C850.16 88.08 848.76 82.4 848.76 76.08C848.76 69.76 850.16 64.12 852.96 59.16C855.84 54.12 859.72 50.16 864.6 47.28C869.48 44.4 875 42.96 881.16 42.96C886.84 42.96 892.04 43.96 896.76 45.96C901.56 47.96 905.36 50.76 908.16 54.36L897.72 66.84C896.6 65.56 895.28 64.36 893.76 63.24C892.24 62.12 890.56 61.24 888.72 60.6C886.88 59.96 884.96 59.64 882.96 59.64C879.92 59.64 877.24 60.36 874.92 61.8C872.6 63.16 870.8 65.08 869.52 67.56C868.24 70.04 867.6 72.88 867.6 76.08C867.6 79.12 868.24 81.88 869.52 84.36C870.88 86.84 872.72 88.8 875.04 90.24C877.36 91.68 880 92.4 882.96 92.4C885.04 92.4 886.96 92.16 888.72 91.68C890.48 91.12 892.08 90.32 893.52 89.28C895.04 88.24 896.44 86.96 897.72 85.44L908.04 98.04C905.32 101.48 901.52 104.2 896.64 106.2C891.84 108.2 886.68 109.2 881.16 109.2Z" fill="#F39A09"/>
<path d="M797.959 108V44.28H817.159V108H797.959ZM807.559 31.68C803.959 31.68 801.119 30.84 799.039 29.16C797.039 27.4 796.039 24.92 796.039 21.72C796.039 18.84 797.079 16.48 799.159 14.64C801.239 12.8 804.039 11.88 807.559 11.88C811.159 11.88 813.959 12.76 815.959 14.52C817.959 16.2 818.959 18.6 818.959 21.72C818.959 24.68 817.919 27.08 815.839 28.92C813.839 30.76 811.079 31.68 807.559 31.68Z" fill="#F39A09"/>
<path d="M727.766 135.6C722.566 135.6 717.366 134.84 712.166 133.32C707.046 131.8 702.886 129.84 699.686 127.44L706.406 114C708.086 115.12 709.926 116.08 711.926 116.88C714.006 117.76 716.166 118.44 718.406 118.92C720.646 119.4 722.926 119.64 725.246 119.64C729.326 119.64 732.646 119.04 735.206 117.84C737.766 116.64 739.686 114.8 740.966 112.32C742.246 109.92 742.886 106.88 742.886 103.2V92.52L746.606 93.12C746.046 95.76 744.646 98.16 742.406 100.32C740.246 102.48 737.566 104.24 734.366 105.6C731.166 106.88 727.766 107.52 724.166 107.52C718.406 107.52 713.246 106.2 708.686 103.56C704.206 100.84 700.646 97.12 698.006 92.4C695.446 87.6 694.166 82.08 694.166 75.84C694.166 69.44 695.446 63.8 698.006 58.92C700.566 53.96 704.086 50.08 708.566 47.28C713.046 44.4 718.086 42.96 723.686 42.96C726.086 42.96 728.366 43.24 730.526 43.8C732.766 44.36 734.806 45.12 736.646 46.08C738.566 46.96 740.246 48.04 741.686 49.32C743.206 50.52 744.406 51.84 745.286 53.28C746.246 54.72 746.886 56.2 747.206 57.72L743.246 58.68L743.966 44.28H762.206V102.84C762.206 108.04 761.406 112.64 759.806 116.64C758.286 120.72 756.006 124.16 752.966 126.96C750.006 129.84 746.406 132 742.166 133.44C737.926 134.88 733.126 135.6 727.766 135.6ZM728.246 92.64C731.366 92.64 734.046 91.96 736.286 90.6C738.606 89.16 740.366 87.2 741.566 84.72C742.846 82.24 743.486 79.32 743.486 75.96C743.486 72.6 742.846 69.68 741.566 67.2C740.366 64.64 738.606 62.68 736.286 61.32C734.046 59.88 731.366 59.16 728.246 59.16C725.206 59.16 722.566 59.88 720.326 61.32C718.086 62.68 716.326 64.64 715.046 67.2C713.846 69.68 713.246 72.6 713.246 75.96C713.246 79.32 713.846 82.24 715.046 84.72C716.326 87.2 718.086 89.16 720.326 90.6C722.566 91.96 725.206 92.64 728.246 92.64Z" fill="#F39A09"/>
<path d="M633.731 109.2C627.091 109.2 621.171 107.76 615.971 104.88C610.851 102 606.771 98.08 603.731 93.12C600.771 88.16 599.291 82.48 599.291 76.08C599.291 69.68 600.771 64 603.731 59.04C606.771 54.08 610.851 50.16 615.971 47.28C621.171 44.4 627.091 42.96 633.731 42.96C640.371 42.96 646.251 44.4 651.371 47.28C656.571 50.16 660.651 54.08 663.611 59.04C666.571 64 668.051 69.68 668.051 76.08C668.051 82.48 666.571 88.16 663.611 93.12C660.651 98.08 656.571 102 651.371 104.88C646.251 107.76 640.371 109.2 633.731 109.2ZM633.731 92.64C636.611 92.64 639.171 91.92 641.411 90.48C643.651 89.04 645.411 87.08 646.691 84.6C647.971 82.12 648.571 79.28 648.491 76.08C648.571 72.88 647.971 70.04 646.691 67.56C645.411 65 643.651 63 641.411 61.56C639.171 60.12 636.611 59.4 633.731 59.4C630.851 59.4 628.251 60.12 625.931 61.56C623.691 63 621.931 65 620.651 67.56C619.371 70.04 618.771 72.88 618.851 76.08C618.771 79.28 619.371 82.12 620.651 84.6C621.931 87.08 623.691 89.04 625.931 90.48C628.251 91.92 630.851 92.64 633.731 92.64Z" fill="#F39A09"/>
<path d="M550.577 108V19.2H569.777V108H550.577Z" fill="#F39A09"/>
<path d="M476.876 109.08C471.516 109.08 466.716 107.68 462.476 104.88C458.316 102 454.996 98.08 452.516 93.12C450.036 88.08 448.796 82.4 448.796 76.08C448.796 69.6 450.036 63.88 452.516 58.92C454.996 53.96 458.396 50.08 462.716 47.28C467.036 44.4 471.956 42.96 477.476 42.96C480.516 42.96 483.276 43.4 485.756 44.28C488.316 45.16 490.556 46.4 492.476 48C494.396 49.52 496.036 51.32 497.396 53.4C498.756 55.4 499.756 57.56 500.396 59.88L496.436 59.4V44.28H515.516V108H496.076V92.64L500.396 92.52C499.756 94.76 498.716 96.88 497.276 98.88C495.836 100.88 494.076 102.64 491.996 104.16C489.916 105.68 487.596 106.88 485.036 107.76C482.476 108.64 479.756 109.08 476.876 109.08ZM482.156 92.88C485.116 92.88 487.676 92.2 489.836 90.84C491.996 89.48 493.676 87.56 494.876 85.08C496.076 82.52 496.676 79.52 496.676 76.08C496.676 72.64 496.076 69.68 494.876 67.2C493.676 64.64 491.996 62.68 489.836 61.32C487.676 59.88 485.116 59.16 482.156 59.16C479.276 59.16 476.756 59.88 474.596 61.32C472.516 62.68 470.876 64.64 469.676 67.2C468.476 69.68 467.876 72.64 467.876 76.08C467.876 79.52 468.476 82.52 469.676 85.08C470.876 87.56 472.516 89.48 474.596 90.84C476.756 92.2 479.276 92.88 482.156 92.88Z" fill="url(#paint0_linear_7987_61)"/>
<path d="M383.441 108V44.28H401.681L402.521 65.04L398.921 61.08C399.881 57.64 401.441 54.56 403.601 51.84C405.841 49.12 408.441 46.96 411.401 45.36C414.361 43.76 417.521 42.96 420.881 42.96C422.321 42.96 423.641 43.08 424.841 43.32C426.121 43.56 427.281 43.84 428.321 44.16L423.041 65.4C422.161 64.84 420.961 64.4 419.441 64.08C418.001 63.68 416.481 63.48 414.881 63.48C413.121 63.48 411.481 63.8 409.961 64.44C408.441 65 407.161 65.84 406.121 66.96C405.081 68.08 404.241 69.4 403.601 70.92C403.041 72.44 402.761 74.16 402.761 76.08V108H383.441Z" fill="url(#paint1_linear_7987_61)"/>
<path d="M310.169 109.32C305.449 109.32 301.409 108.32 298.049 106.32C294.769 104.24 292.209 101.28 290.369 97.44C288.609 93.6 287.729 89 287.729 83.64V44.28H307.049V81C307.049 83.56 307.449 85.76 308.249 87.6C309.049 89.44 310.249 90.88 311.849 91.92C313.449 92.88 315.369 93.36 317.609 93.36C319.289 93.36 320.809 93.08 322.169 92.52C323.609 91.96 324.809 91.2 325.769 90.24C326.809 89.2 327.609 88.04 328.169 86.76C328.729 85.4 329.009 83.92 329.009 82.32V44.28H348.329V108H330.209L329.369 94.92L332.969 93.48C332.009 96.52 330.409 99.24 328.169 101.64C325.929 103.96 323.249 105.84 320.129 107.28C317.009 108.64 313.689 109.32 310.169 109.32Z" fill="url(#paint2_linear_7987_61)"/>
<path d="M216.04 109.08C210.68 109.08 205.88 107.68 201.64 104.88C197.48 102 194.16 98.08 191.68 93.12C189.2 88.08 187.96 82.4 187.96 76.08C187.96 69.6 189.2 63.88 191.68 58.92C194.16 53.96 197.56 50.08 201.88 47.28C206.2 44.4 211.12 42.96 216.64 42.96C219.68 42.96 222.44 43.4 224.92 44.28C227.48 45.16 229.72 46.4 231.64 48C233.56 49.52 235.2 51.32 236.56 53.4C237.92 55.4 238.92 57.56 239.56 59.88L235.6 59.4V44.28H254.68V108H235.24V92.64L239.56 92.52C238.92 94.76 237.88 96.88 236.44 98.88C235 100.88 233.24 102.64 231.16 104.16C229.08 105.68 226.76 106.88 224.2 107.76C221.64 108.64 218.92 109.08 216.04 109.08ZM221.32 92.88C224.28 92.88 226.84 92.2 229 90.84C231.16 89.48 232.84 87.56 234.04 85.08C235.24 82.52 235.84 79.52 235.84 76.08C235.84 72.64 235.24 69.68 234.04 67.2C232.84 64.64 231.16 62.68 229 61.32C226.84 59.88 224.28 59.16 221.32 59.16C218.44 59.16 215.92 59.88 213.76 61.32C211.68 62.68 210.04 64.64 208.84 67.2C207.64 69.68 207.04 72.64 207.04 76.08C207.04 79.52 207.64 82.52 208.84 85.08C210.04 87.56 211.68 89.48 213.76 90.84C215.92 92.2 218.44 92.88 221.32 92.88Z" fill="url(#paint3_linear_7987_61)"/>
<path d="M96.4735 145.021L30.5515 96.0767C28.4927 94.5481 25.6533 94.6573 23.717 96.3393L17.8912 101.4C15.2666 103.68 15.3927 107.806 18.1516 109.92L96.3851 169.873C98.2628 171.312 100.849 171.379 102.798 170.039L153.62 135.095C156.572 133.066 156.821 128.786 154.126 126.425L147.521 120.638C145.675 119.021 142.984 118.833 140.933 120.176L102.717 145.205C100.802 146.46 98.3119 146.386 96.4735 145.021Z" fill="url(#paint4_linear_7987_61)"/>
<path d="M149.711 58.3808L143.334 62.9672C141.287 64.4394 138.501 64.3315 136.574 62.7054L104.38 35.5387C102.439 33.9008 99.6283 33.8046 97.5797 35.3059L54.5275 66.8573C51.5479 69.0409 51.5254 73.4821 54.4827 75.6958L97.9474 108.232C99.8185 109.633 102.37 109.698 104.311 108.395L135.588 87.395C137.491 86.1173 139.987 86.1533 141.852 87.4854L149.429 92.8962C152.606 95.1652 152.473 99.9293 149.175 102.018L101.595 132.147C99.6317 133.39 97.0981 133.265 95.2662 131.834L20.1148 73.1449C17.1727 70.8474 17.3254 66.3494 20.4165 64.2566L97.6766 11.9459C99.6908 10.5822 102.362 10.7031 104.244 12.2432L149.982 49.6592C152.781 51.9488 152.647 56.2695 149.711 58.3808Z" fill="url(#paint5_linear_7987_61)"/>
<path d="M98.5561 51.2107C100.006 50.1958 101.95 50.2543 103.337 51.3545L128.233 71.1132C130.348 72.7921 130.226 76.0417 127.991 77.5572L105.362 92.8987C103.949 93.8568 102.083 93.8123 100.717 92.7879L75.4156 73.8117C73.2384 72.1788 73.2922 68.8955 75.5218 67.3348L98.5561 51.2107Z" fill="#E25A34"/>
<defs>
<linearGradient id="paint0_linear_7987_61" x1="482.156" y1="42.96" x2="482.156" y2="109.08" gradientUnits="userSpaceOnUse">
<stop stop-color="#063CE6"/>
<stop offset="1" stop-color="#002BB4"/>
</linearGradient>
<linearGradient id="paint1_linear_7987_61" x1="405.881" y1="42.96" x2="405.881" y2="108" gradientUnits="userSpaceOnUse">
<stop stop-color="#063CE6"/>
<stop offset="1" stop-color="#002BB4"/>
</linearGradient>
<linearGradient id="paint2_linear_7987_61" x1="318.029" y1="44.28" x2="318.029" y2="109.32" gradientUnits="userSpaceOnUse">
<stop stop-color="#063CE6"/>
<stop offset="1" stop-color="#002BB4"/>
</linearGradient>
<linearGradient id="paint3_linear_7987_61" x1="221.32" y1="42.96" x2="221.32" y2="109.08" gradientUnits="userSpaceOnUse">
<stop stop-color="#063CE6"/>
<stop offset="1" stop-color="#002BB4"/>
</linearGradient>
<linearGradient id="paint4_linear_7987_61" x1="96" y1="118.5" x2="96" y2="208.5" gradientUnits="userSpaceOnUse">
<stop stop-color="#F39A09"/>
<stop offset="1" stop-color="#E25A34"/>
</linearGradient>
<linearGradient id="paint5_linear_7987_61" x1="102" y1="54" x2="106" y2="195" gradientUnits="userSpaceOnUse">
<stop stop-color="#063CE6"/>
<stop offset="1" stop-color="#032180"/>
</linearGradient>
</defs>
</svg>
