<svg width="1200" height="630" viewBox="0 0 1200 630" fill="none" xmlns="http://www.w3.org/2000/svg" font-family="'DM Sans', ui-sans-serif, system-ui, sans-serif">
  <defs>
    <radialGradient id="ac" cx="0.5" cy="0.5" r="0.5">
      <stop offset="0%" stop-color="#10B981" stop-opacity="0.14"/><stop offset="100%" stop-color="#10B981" stop-opacity="0"/>
    </radialGradient>
    <radialGradient id="vi" cx="0.5" cy="0.5" r="0.5">
      <stop offset="0%" stop-color="#6D5EFA" stop-opacity="0.10"/><stop offset="100%" stop-color="#6D5EFA" stop-opacity="0"/>
    </radialGradient>
    <pattern id="g" width="44" height="44" patternUnits="userSpaceOnUse"><path d="M44 0H0V44" fill="none" stroke="#FFFFFF" stroke-opacity="0.03" stroke-width="1"/></pattern>
  </defs>
  <rect width="1200" height="630" fill="#0B0B16"/>
  <rect width="1200" height="630" fill="url(#g)"/>
  <ellipse cx="950" cy="130" rx="430" ry="300" fill="url(#ac)"/>
  <ellipse cx="240" cy="540" rx="400" ry="280" fill="url(#vi)"/>

  <rect x="100" y="70" width="320" height="40" rx="20" fill="#FFFFFF" fill-opacity="0.05" stroke="#FFFFFF" stroke-opacity="0.12"/>
  <circle cx="124" cy="90" r="5" fill="#10B981"/>
  <text x="142" y="95" fill="#C7C9D9" font-size="15" font-weight="700" letter-spacing="2">NEXORA ENGINE · GHOST PROTOCOL</text>

  <!-- fingerprints panel (left) -->
  <rect x="100" y="184" width="600" height="300" rx="22" fill="#14141F" stroke="#FFFFFF" stroke-opacity="0.08"/>
  <text x="132" y="228" fill="#FFFFFF" font-size="19" font-weight="700">Fingerprints removed</text>
  <g font-family="ui-monospace, SFMono-Regular, Menlo, monospace">
    <g transform="translate(132,262)"><text x="22" y="14" fill="#7B7E90" font-size="15" text-decoration="line-through">&lt;meta name="generator"&gt;</text><line x1="22" y1="9" x2="300" y2="9" stroke="#7B7E90" stroke-width="1.5"/></g>
    <g transform="translate(132,300)"><text x="22" y="14" fill="#7B7E90" font-size="15" text-decoration="line-through">/wp-json/ REST routes</text><line x1="22" y1="9" x2="250" y2="9" stroke="#7B7E90" stroke-width="1.5"/></g>
    <g transform="translate(132,338)"><text x="22" y="14" fill="#7B7E90" font-size="15" text-decoration="line-through">/wp-content/plugins/</text><line x1="22" y1="9" x2="240" y2="9" stroke="#7B7E90" stroke-width="1.5"/></g>
    <g transform="translate(132,376)"><text x="22" y="14" fill="#7B7E90" font-size="15" text-decoration="line-through">window.wp namespace</text><line x1="22" y1="9" x2="250" y2="9" stroke="#7B7E90" stroke-width="1.5"/></g>
    <g transform="translate(132,414)"><text x="22" y="14" fill="#7B7E90" font-size="15" text-decoration="line-through">X-Powered-By header</text><line x1="22" y1="9" x2="240" y2="9" stroke="#7B7E90" stroke-width="1.5"/></g>
  </g>

  <!-- shield + detection (right) -->
  <g transform="translate(800,210)">
    <path d="M110 8 L196 40 V104 C196 158 154 196 110 214 C66 196 24 158 24 104 V40 Z" fill="#10B981" fill-opacity="0.06" stroke="#10B981" stroke-opacity="0.45" stroke-width="2"/>
    <path d="M84 108 l18 18 l34 -40" stroke="#10B981" stroke-width="5" fill="none" stroke-linecap="round" stroke-linejoin="round"/>
    <text x="110" y="172" fill="#C7C9D9" font-size="14" font-weight="600" text-anchor="middle">No CMS detected</text>
  </g>
  <rect x="828" y="436" width="244" height="40" rx="20" fill="#10B981" fill-opacity="0.12"/>
  <text x="950" y="461" fill="#34D399" font-size="14" font-weight="700" text-anchor="middle">Scanner reports: Nginx</text>

  <text x="1110" y="592" fill="#FFFFFF" fill-opacity="0.45" font-size="15" font-weight="700" text-anchor="end" letter-spacing="1">Auralogics Labs</text>
</svg>
