<svg width="1200" height="630" viewBox="0 0 1200 630" fill="none" xmlns="http://www.w3.org/2000/svg" font-family="'DM Sans', ui-sans-serif, system-ui, sans-serif">
  <defs>
    <radialGradient id="ac" cx="0.5" cy="0.5" r="0.5">
      <stop offset="0%" stop-color="#2DD4BF" stop-opacity="0.16"/><stop offset="100%" stop-color="#2DD4BF" stop-opacity="0"/>
    </radialGradient>
    <radialGradient id="vi" cx="0.5" cy="0.5" r="0.5">
      <stop offset="0%" stop-color="#6D5EFA" stop-opacity="0.10"/><stop offset="100%" stop-color="#6D5EFA" stop-opacity="0"/>
    </radialGradient>
    <pattern id="g" width="44" height="44" patternUnits="userSpaceOnUse"><path d="M44 0H0V44" fill="none" stroke="#FFFFFF" stroke-opacity="0.03" stroke-width="1"/></pattern>
  </defs>
  <rect width="1200" height="630" fill="#0B0B16"/>
  <rect width="1200" height="630" fill="url(#g)"/>
  <ellipse cx="980" cy="120" rx="420" ry="300" fill="url(#ac)"/>
  <ellipse cx="220" cy="540" rx="380" ry="280" fill="url(#vi)"/>

  <!-- eyebrow -->
  <rect x="100" y="70" width="300" height="40" rx="20" fill="#FFFFFF" fill-opacity="0.05" stroke="#FFFFFF" stroke-opacity="0.12"/>
  <circle cx="124" cy="90" r="5" fill="#2DD4BF"/>
  <text x="142" y="95" fill="#C7C9D9" font-size="15" font-weight="700" letter-spacing="2">NEXORA PULSE · SEO CONSOLE</text>

  <!-- console panel -->
  <rect x="320" y="176" width="560" height="312" rx="22" fill="#14141F" stroke="#FFFFFF" stroke-opacity="0.08"/>
  <text x="348" y="222" fill="#FFFFFF" font-size="20" font-weight="700">SEO Console</text>
  <text x="348" y="244" fill="#8A8C9E" font-size="13">9 modules · one dashboard</text>
  <rect x="772" y="200" width="80" height="30" rx="15" fill="#2DD4BF" fill-opacity="0.12"/>
  <text x="812" y="220" fill="#5EEAD4" font-size="12" font-weight="700" text-anchor="middle">Free</text>

  <!-- 3x3 module tiles -->
  <g>
    <!-- row1 -->
    <g transform="translate(348,262)"><rect width="160" height="56" rx="12" fill="#FFFFFF" fill-opacity="0.04" stroke="#FFFFFF" stroke-opacity="0.07"/><circle cx="20" cy="28" r="5" fill="#9CA3AF"/><text x="36" y="33" fill="#C7C9D9" font-size="13" font-weight="600">Analyzer</text></g>
    <g transform="translate(520,262)"><rect width="160" height="56" rx="12" fill="#2DD4BF" fill-opacity="0.10" stroke="#2DD4BF" stroke-opacity="0.40"/><circle cx="20" cy="28" r="5" fill="#2DD4BF"/><text x="36" y="33" fill="#FFFFFF" font-size="13" font-weight="700">Index Doctor</text></g>
    <g transform="translate(692,262)"><rect width="160" height="56" rx="12" fill="#FFFFFF" fill-opacity="0.04" stroke="#FFFFFF" stroke-opacity="0.07"/><circle cx="20" cy="28" r="5" fill="#9CA3AF"/><text x="36" y="33" fill="#C7C9D9" font-size="13" font-weight="600">Neural Links</text></g>
    <!-- row2 -->
    <g transform="translate(348,330)"><rect width="160" height="56" rx="12" fill="#FFFFFF" fill-opacity="0.04" stroke="#FFFFFF" stroke-opacity="0.07"/><circle cx="20" cy="28" r="5" fill="#9CA3AF"/><text x="36" y="33" fill="#C7C9D9" font-size="13" font-weight="600">Web Vitals</text></g>
    <g transform="translate(520,330)"><rect width="160" height="56" rx="12" fill="#FFFFFF" fill-opacity="0.04" stroke="#FFFFFF" stroke-opacity="0.07"/><circle cx="20" cy="28" r="5" fill="#9CA3AF"/><text x="36" y="33" fill="#C7C9D9" font-size="13" font-weight="600">Originality</text></g>
    <g transform="translate(692,330)"><rect width="160" height="56" rx="12" fill="#FFFFFF" fill-opacity="0.04" stroke="#FFFFFF" stroke-opacity="0.07"/><circle cx="20" cy="28" r="5" fill="#9CA3AF"/><text x="36" y="33" fill="#C7C9D9" font-size="13" font-weight="600">Image SEO</text></g>
    <!-- row3 -->
    <g transform="translate(348,398)"><rect width="160" height="56" rx="12" fill="#FFFFFF" fill-opacity="0.04" stroke="#FFFFFF" stroke-opacity="0.07"/><circle cx="20" cy="28" r="5" fill="#9CA3AF"/><text x="36" y="33" fill="#C7C9D9" font-size="13" font-weight="600">Redirects</text></g>
    <g transform="translate(520,398)"><rect width="160" height="56" rx="12" fill="#FFFFFF" fill-opacity="0.04" stroke="#FFFFFF" stroke-opacity="0.07"/><circle cx="20" cy="28" r="5" fill="#9CA3AF"/><text x="36" y="33" fill="#C7C9D9" font-size="13" font-weight="600">Sitemap</text></g>
    <g transform="translate(692,398)"><rect width="160" height="56" rx="12" fill="#FFFFFF" fill-opacity="0.04" stroke="#FFFFFF" stroke-opacity="0.07"/><circle cx="20" cy="28" r="5" fill="#9CA3AF"/><text x="36" y="33" fill="#C7C9D9" font-size="13" font-weight="600">Schema</text></g>
  </g>

  <text x="1110" y="592" fill="#FFFFFF" fill-opacity="0.45" font-size="15" font-weight="700" text-anchor="end" letter-spacing="1">Auralogics Labs</text>
</svg>
