<svg width="1200" height="630" viewBox="0 0 1200 630" fill="none" xmlns="http://www.w3.org/2000/svg" font-family="'DM Sans', ui-sans-serif, system-ui, sans-serif">
  <defs>
    <radialGradient id="ac" cx="0.5" cy="0.5" r="0.5">
      <stop offset="0%" stop-color="#F39A09" stop-opacity="0.14"/><stop offset="100%" stop-color="#F39A09" stop-opacity="0"/>
    </radialGradient>
    <radialGradient id="vi" cx="0.5" cy="0.5" r="0.5">
      <stop offset="0%" stop-color="#6D5EFA" stop-opacity="0.10"/><stop offset="100%" stop-color="#6D5EFA" stop-opacity="0"/>
    </radialGradient>
    <linearGradient id="thumb" x1="0" y1="0" x2="1" y2="1"><stop offset="0%" stop-color="#F39A09" stop-opacity="0.22"/><stop offset="100%" stop-color="#F39A09" stop-opacity="0.06"/></linearGradient>
    <pattern id="g" width="44" height="44" patternUnits="userSpaceOnUse"><path d="M44 0H0V44" fill="none" stroke="#FFFFFF" stroke-opacity="0.03" stroke-width="1"/></pattern>
  </defs>
  <rect width="1200" height="630" fill="#0B0B16"/>
  <rect width="1200" height="630" fill="url(#g)"/>
  <ellipse cx="280" cy="130" rx="430" ry="300" fill="url(#ac)"/>
  <ellipse cx="980" cy="540" rx="400" ry="280" fill="url(#vi)"/>

  <!-- eyebrow -->
  <rect x="100" y="68" width="312" height="40" rx="20" fill="#FFFFFF" fill-opacity="0.05" stroke="#FFFFFF" stroke-opacity="0.12"/>
  <circle cx="124" cy="88" r="5" fill="#F39A09"/>
  <text x="142" y="93" fill="#C7C9D9" font-size="15" font-weight="700" letter-spacing="2">NEXORA ENGINE · WOOCOMMERCE</text>
  <text x="100" y="160" fill="#8A8C9E" font-size="14">Session-aware routing — cache the catalog, keep checkout live</text>

  <!-- LEFT: static catalog (product grid) -->
  <rect x="100" y="186" width="470" height="320" rx="22" fill="#14141F" stroke="#F39A09" stroke-opacity="0.30"/>
  <text x="132" y="224" fill="#FFFFFF" font-size="17" font-weight="700">Catalog</text>
  <rect x="430" y="206" width="116" height="28" rx="14" fill="#F39A09" fill-opacity="0.14"/>
  <text x="488" y="225" fill="#FBBF24" font-size="12" font-weight="700" text-anchor="middle">Static · 22ms</text>

  <!-- product cards -->
  <g>
    <!-- card 1 -->
    <g transform="translate(132,250)">
      <rect width="128" height="226" rx="14" fill="#FFFFFF" fill-opacity="0.04" stroke="#FFFFFF" stroke-opacity="0.07"/>
      <rect x="12" y="12" width="104" height="120" rx="10" fill="url(#thumb)"/>
      <circle cx="44" cy="48" r="11" fill="#F39A09" fill-opacity="0.5"/>
      <path d="M24 92 l24 -28 l18 18 l14 -12 l24 22 Z" fill="#F39A09" fill-opacity="0.35"/>
      <rect x="12" y="146" width="80" height="9" rx="4.5" fill="#FFFFFF" fill-opacity="0.16"/>
      <rect x="12" y="166" width="54" height="8" rx="4" fill="#FFFFFF" fill-opacity="0.10"/>
      <text x="12" y="206" fill="#FBBF24" font-size="15" font-weight="800">$29</text>
      <rect x="74" y="190" width="42" height="22" rx="11" fill="#F39A09" fill-opacity="0.16"/>
      <text x="95" y="205" fill="#FBBF24" font-size="10" font-weight="700" text-anchor="middle">Add</text>
    </g>
    <!-- card 2 -->
    <g transform="translate(271,250)">
      <rect width="128" height="226" rx="14" fill="#FFFFFF" fill-opacity="0.04" stroke="#FFFFFF" stroke-opacity="0.07"/>
      <rect x="12" y="12" width="104" height="120" rx="10" fill="url(#thumb)"/>
      <circle cx="44" cy="48" r="11" fill="#F39A09" fill-opacity="0.5"/>
      <path d="M24 92 l24 -28 l18 18 l14 -12 l24 22 Z" fill="#F39A09" fill-opacity="0.35"/>
      <rect x="12" y="146" width="72" height="9" rx="4.5" fill="#FFFFFF" fill-opacity="0.16"/>
      <rect x="12" y="166" width="48" height="8" rx="4" fill="#FFFFFF" fill-opacity="0.10"/>
      <text x="12" y="206" fill="#FBBF24" font-size="15" font-weight="800">$49</text>
      <rect x="74" y="190" width="42" height="22" rx="11" fill="#F39A09" fill-opacity="0.16"/>
      <text x="95" y="205" fill="#FBBF24" font-size="10" font-weight="700" text-anchor="middle">Add</text>
    </g>
    <!-- card 3 -->
    <g transform="translate(410,250)">
      <rect width="128" height="226" rx="14" fill="#FFFFFF" fill-opacity="0.04" stroke="#FFFFFF" stroke-opacity="0.07"/>
      <rect x="12" y="12" width="104" height="120" rx="10" fill="url(#thumb)"/>
      <circle cx="44" cy="48" r="11" fill="#F39A09" fill-opacity="0.5"/>
      <path d="M24 92 l24 -28 l18 18 l14 -12 l24 22 Z" fill="#F39A09" fill-opacity="0.35"/>
      <rect x="12" y="146" width="78" height="9" rx="4.5" fill="#FFFFFF" fill-opacity="0.16"/>
      <rect x="12" y="166" width="44" height="8" rx="4" fill="#FFFFFF" fill-opacity="0.10"/>
      <text x="12" y="206" fill="#FBBF24" font-size="15" font-weight="800">$19</text>
      <rect x="74" y="190" width="42" height="22" rx="11" fill="#F39A09" fill-opacity="0.16"/>
      <text x="95" y="205" fill="#FBBF24" font-size="10" font-weight="700" text-anchor="middle">Add</text>
    </g>
  </g>

  <!-- divider -->
  <line x1="600" y1="206" x2="600" y2="486" stroke="#FFFFFF" stroke-opacity="0.10" stroke-dasharray="2 7"/>

  <!-- RIGHT: live cart / checkout -->
  <rect x="630" y="186" width="470" height="320" rx="22" fill="#14141F" stroke="#FFFFFF" stroke-opacity="0.10"/>
  <text x="662" y="224" fill="#FFFFFF" font-size="17" font-weight="700">Cart</text>
  <rect x="978" y="206" width="90" height="28" rx="14" fill="#FFFFFF" fill-opacity="0.07"/>
  <text x="1023" y="225" fill="#B6BECC" font-size="12" font-weight="700" text-anchor="middle">Live · PHP</text>

  <!-- line items -->
  <g transform="translate(662,256)">
    <rect width="406" height="56" rx="12" fill="#FFFFFF" fill-opacity="0.03" stroke="#FFFFFF" stroke-opacity="0.06"/>
    <rect x="12" y="12" width="32" height="32" rx="8" fill="url(#thumb)"/>
    <rect x="56" y="16" width="150" height="9" rx="4.5" fill="#FFFFFF" fill-opacity="0.18"/>
    <rect x="56" y="34" width="90" height="7" rx="3.5" fill="#FFFFFF" fill-opacity="0.10"/>
    <text x="394" y="34" fill="#E7E8F0" font-size="14" font-weight="700" text-anchor="end">$29</text>
  </g>
  <g transform="translate(662,322)">
    <rect width="406" height="56" rx="12" fill="#FFFFFF" fill-opacity="0.03" stroke="#FFFFFF" stroke-opacity="0.06"/>
    <rect x="12" y="12" width="32" height="32" rx="8" fill="url(#thumb)"/>
    <rect x="56" y="16" width="120" height="9" rx="4.5" fill="#FFFFFF" fill-opacity="0.18"/>
    <rect x="56" y="34" width="74" height="7" rx="3.5" fill="#FFFFFF" fill-opacity="0.10"/>
    <text x="394" y="34" fill="#E7E8F0" font-size="14" font-weight="700" text-anchor="end">$19</text>
  </g>

  <!-- total -->
  <line x1="662" y1="398" x2="1068" y2="398" stroke="#FFFFFF" stroke-opacity="0.08"/>
  <text x="662" y="424" fill="#8A8C9E" font-size="14" font-weight="600">Total</text>
  <text x="1068" y="424" fill="#FFFFFF" font-size="18" font-weight="800" text-anchor="end">$48</text>

  <!-- checkout button -->
  <rect x="662" y="442" width="406" height="44" rx="12" fill="#FFFFFF" fill-opacity="0.10" stroke="#FFFFFF" stroke-opacity="0.14"/>
  <text x="865" y="470" fill="#FFFFFF" font-size="14" font-weight="700" text-anchor="middle">Checkout →</text>

  <text x="1110" y="600" fill="#FFFFFF" fill-opacity="0.45" font-size="15" font-weight="700" text-anchor="end" letter-spacing="1">Auralogics Labs</text>
</svg>
